<?xml version="1.0" encoding="UTF-8" standalone="no"?>
<svg width="93px" height="101px" viewBox="0 0 93 101" version="1.1" xmlns="http://www.w3.org/2000/svg" xmlns:xlink="http://www.w3.org/1999/xlink">
    <!-- Generator: Sketch 3.7.2 (28276) - http://www.bohemiancoding.com/sketch -->
    <title>nightwatch-cucumber-logo</title>
    <desc>Created with Sketch.</desc>
    <defs></defs>
    <g id="Page-1" stroke="none" stroke-width="1" fill="none" fill-rule="evenodd">
        <g id="nightwatch-cucumber-logo">
            <path d="M46.3276098,1.36190045 C49.398878,-0.210226244 52.955561,0.475294118 56.2581951,0.406742081 C64.8731707,0.191945701 73.4836098,0.539276018 82.0940488,0.324479638 C85.5781463,0.15081448 89.0531707,1.8920362 90.954,4.84891403 C92.7414146,7.41733032 92.6642927,10.6941176 92.8230732,13.6966968 C92.6869756,18.2668326 92.7867805,22.8415385 92.7550244,27.4116742 C92.6779024,30.0852036 92.3421951,32.9278281 90.6409756,35.0986425 C88.8081951,37.639638 85.7323902,39.2071946 82.6112195,39.188914 C77.7525366,39.2346154 72.8983902,39.1569231 68.0442439,39.2163348 C67.4136585,39.1752036 66.9237073,39.6413575 66.4201463,39.9429864 C62.0015122,43.1146606 57.551122,46.2497738 53.1234146,49.4123077 C51.9166829,50.2532127 50.4921951,51.1352489 48.9588293,50.8519005 C47.747561,50.5731222 46.9899512,49.1609502 47.5207317,48.0001357 C48.6957073,45.0432579 50.1519512,42.2052036 51.3450732,39.2574661 C48.5777561,39.2528959 45.7650732,38.3251584 43.7825854,36.3188688 C41.7774146,34.3811312 40.7249268,31.5887783 40.734,28.8055656 C40.7294634,22.7044344 40.7203902,16.598733 40.7430732,10.4976018 C40.7158537,6.70438914 42.9387805,3.03457014 46.3276098,1.36190045 L46.3276098,1.36190045 Z" id="Shape" fill="#1F5D29"></path>
            <path d="M48.0515122,2.61411765 C50.1020488,1.87375566 52.320439,2.13882353 54.4571707,2.12054299 C62.6139512,2.0839819 70.7752683,2.12968326 78.9365854,2.11140271 C80.9735122,2.12968326 83.0603415,1.92402715 85.0428293,2.50443439 C87.6785854,3.3499095 89.8879024,5.59841629 90.527561,8.33135747 C91.0492683,10.5341629 90.8315122,12.8146606 90.8587317,15.0585973 C90.8133659,19.7886878 90.9267805,24.5233484 90.8042927,29.2534389 C90.7407805,32.1920362 89.0803902,35.0392308 86.4627805,36.3828507 C84.6073171,37.5253846 82.3707805,37.401991 80.2884878,37.3882805 C76.6501463,37.3608597 73.0163415,37.4065611 69.378,37.3517195 C68.1939512,37.3517195 66.9010244,37.2785973 65.9120488,38.0555204 C61.434439,41.2043439 56.861561,44.2114932 52.4066341,47.3923077 C51.4766341,48.0823982 50.460439,48.6353846 49.3943415,49.0832579 C50.7553171,45.1255204 52.7015122,41.4054299 54.0307317,37.4339819 C52.4066341,37.3745701 50.778,37.438552 49.1675122,37.2237557 C45.8013659,36.5656561 43.0340488,33.6042081 42.6756585,30.1491855 C42.3354146,26.6621719 42.5894634,23.1431674 42.5259512,19.6424434 C42.5849268,16.2971041 42.3717073,12.9471946 42.6212195,9.61099548 C42.8435122,6.46217195 45.0981951,3.62868778 48.0515122,2.61411765 L48.0515122,2.61411765 Z" id="Shape" fill="#6FB91B"></path>
            <path d="M49.9069755,4.34264075 C59.5971219,4.37920184 73.3066841,4.39291225 83.0013671,4.34264075 C85.7627595,4.39291225 88.7356107,7.23031744 88.7356107,9.78816886 C88.7582936,15.4185761 88.6947805,21.781267 88.7356098,27.4162443 C88.7265366,28.7964253 88.7855122,30.2223077 88.2683415,31.5339367 C87.42,33.6499095 85.2878049,35.2037557 83.0013659,35.2448869 C77.4122927,35.450543 71.8005366,35.1032127 66.2205366,35.3774208 C61.883561,38.1377828 57.7734146,41.2911765 53.5498537,44.2434842 C54.8019512,41.2546154 56.2219024,38.3342986 57.3197561,35.2860181 C54.8518537,35.2448869 52.374878,35.4139819 49.9069756,35.2128959 C46.9899512,34.9661086 44.6173171,32.1966063 44.6672195,29.2671493 C44.6173171,23.0106335 44.6899024,16.0446847 44.6672195,9.78816886 C44.6899024,7.34706303 47.3464003,4.34264075 49.9069755,4.34264075 Z" id="Shape" fill="#CDE185"></path>
            <path d="M68.1621951,10.9317647 C67.9898049,9.15855204 69.9586829,7.57271493 71.6372195,8.17140271 C73.5108293,8.96660633 74.1187317,11.818371 72.6534146,13.2808145 C71.4149268,14.5650226 69.9178537,15.5704525 68.6521463,16.83181 C68.5432683,14.8620814 68.1576585,12.9106335 68.1621951,10.9317647 L68.1621951,10.9317647 Z" id="Shape" fill="#FFFFFF"></path>
            <path d="M60.3365854,12.8375113 C59.1343902,11.4527602 59.783122,8.85235294 61.6930244,8.56443439 C63.3670244,8.36334842 65.3676585,9.59271493 65.4266341,11.4207692 C65.4901463,13.3585068 65.0909268,15.2779638 65.1725854,17.2202715 C63.7571707,15.5338914 61.7474634,14.510181 60.3365854,12.8375113 L60.3365854,12.8375113 Z" id="Shape" fill="#FFFFFF"></path>
            <path d="M76.0966829,13.1391403 C77.2898049,11.9691855 79.608,12.1931222 80.3429268,13.7652489 C80.9462927,15.4607692 79.9119512,17.8235294 77.988439,17.9926244 C76.0558537,18.1754299 74.1232683,17.8555204 72.1997561,17.7366968 C73.5834146,16.2788235 74.6449756,14.5284615 76.0966829,13.1391403 L76.0966829,13.1391403 Z" id="Shape" fill="#FFFFFF"></path>
            <path d="M53.2912683,14.8300905 C54.366439,13.838371 56.2128293,13.3813575 57.4286341,14.3730769 C58.9166341,15.5933032 59.9827317,17.2339819 61.248439,18.6690045 C59.1117073,18.8655204 56.9659024,19.2951131 54.815561,19.0985973 C52.955561,18.8929412 51.8894634,16.1782805 53.2912683,14.8300905 L53.2912683,14.8300905 Z" id="Shape" fill="#FFFFFF"></path>
            <path d="M73.4518537,21.0180543 C75.4479512,20.9495023 77.4168293,20.4742081 79.4174634,20.4970588 C81.2184878,20.5838914 82.715561,22.6404525 81.7946341,24.3359729 C80.7875122,25.9492308 78.2061951,26.3879638 76.8497561,24.9757919 C75.6021951,23.7601357 74.5905366,22.3342534 73.4518537,21.0180543 L73.4518537,21.0180543 Z" id="Shape" fill="#FFFFFF"></path>
            <path d="M53.0281463,26.0223529 C52.4746829,24.1942986 53.8538049,22.0417647 55.7863902,21.9686425 C57.714439,21.8726697 59.6334146,22.2017195 61.5614634,22.1331674 C60.000878,23.5270588 58.9347805,25.3551131 57.4694634,26.831267 C56.2355122,28.1337557 53.6315122,27.8138462 53.0281463,26.0223529 L53.0281463,26.0223529 Z" id="Shape" fill="#FFFFFF"></path>
            <path d="M61.325561,27.5030769 C62.6094146,25.990362 64.3968293,24.9940724 65.6126341,23.399095 C65.5309756,25.5104977 66.03,27.5899095 65.9891707,29.6967421 C65.9937073,31.0357919 64.8913171,32.3474208 63.5439512,32.4159729 C61.1440976,32.7038914 59.8284878,29.1757466 61.325561,27.5030769 L61.325561,27.5030769 Z" id="Shape" fill="#FFFFFF"></path>
            <path d="M68.9107317,23.1477376 C70.4440976,24.4136652 72.1407805,25.5013575 73.5017561,26.9638009 C74.3637073,27.8641176 74.5497073,29.4042534 73.7694146,30.4142534 C72.4220488,32.5073756 68.7882439,31.1134842 68.6294634,28.7918552 C68.5069756,26.9043891 68.82,25.0260633 68.9107317,23.1477376 L68.9107317,23.1477376 Z" id="Shape" fill="#FFFFFF"></path>
            <path d="M23.4087805,39.659638 C24.3705366,37.740181 25.6271707,35.6287783 28.0134146,35.4688235 C27.5688293,36.2777376 27.0199024,37.0226697 26.4301463,37.7310407 C26.4165366,38.649638 26.412,39.5682353 26.4256098,40.4868326 C27.791122,39.6824887 29.0613659,37.808733 30.8306341,38.4714027 C30.4903902,39.9338462 28.9660976,40.8844344 28.9434146,42.5068326 C30.7217561,42.9866968 32.418439,43.7133484 34.0516098,44.5633937 C36.1883415,43.8778733 38.238878,42.9364253 40.3982927,42.3423077 C41.0379512,42.0955204 41.9089756,42.2646154 42.1811707,42.959276 C42.2356098,45.8750226 41.2466341,48.7085068 41.2602439,51.6196833 C41.8409268,53.1232579 42.7754634,54.4577376 43.3833659,55.9521719 C44.4177073,58.1458371 44.8486829,60.5588688 45.756,62.8028054 C46.8130244,70.128733 46.3321463,77.8339819 43.1656098,84.6069231 C41.9316585,87.5363801 39.8992683,89.990543 38.0937073,92.5680995 C36.8189268,93.2307692 35.712,94.1676471 34.5823902,95.0496833 C39.99,95.0679638 45.3976098,95.0542534 50.8052195,95.0588235 C50.8097561,97.0376923 50.8097561,99.0165611 50.8097561,101 L0,101 L0,95.0588235 C5.62990244,95.0542534 11.2552683,95.0679638 16.8851707,95.0542534 C15.2656098,93.8385973 13.7957561,92.4447059 12.1852683,91.2244796 C10.23,88.1442081 8.14770732,85.0822172 7.07253659,81.5495023 C5.12634146,76.1613122 5.11726829,70.3435294 5.41214634,64.6902715 C6.14707317,62.5148869 6.44195122,60.2069683 7.254,58.0544344 C7.76663415,56.4868778 8.61497561,55.0518552 9.13668293,53.4888688 C8.94160976,49.7459276 7.92541463,46.0715385 7.9662439,42.3103167 C11.1237073,42.1229412 13.8093659,44.1657919 16.817122,44.7736199 C18.9130244,43.9327149 20.9181951,42.8495928 23.141122,42.3605882 C22.1839024,41.0992308 19.8793171,40.0892308 20.7321951,38.210905 C21.630439,38.6770588 22.5286829,39.1523529 23.4087805,39.659638 L23.4087805,39.659638 Z" id="Shape" fill="#512D14"></path>
            <path d="M14.7121463,50.5457014 C19.2986341,48.9918552 24.234439,52.2412217 25.6725366,56.6651131 C26.8339024,54.1743891 28.5940976,51.779638 31.2343902,50.7787783 C34.4825854,49.389457 38.424878,50.4862896 40.7158537,53.1278281 C44.7398049,57.4968778 44.4449268,65.1472851 39.9582439,69.0867421 C38.579122,70.3846606 36.750878,71.0107692 34.9271707,71.3535294 C38.447561,73.931086 40.7067805,78.3184163 40.1850732,82.7423077 C39.6452195,88.7474661 34.3419512,93.5186878 28.5396585,94.2361991 C22.2837073,95.2690498 15.3427317,91.6906335 13.2241463,85.5255204 C11.3097073,80.4252489 13.5099512,74.4520814 17.8514634,71.37181 C14.1405366,71.4906335 10.5883902,69.2238462 9.06863415,65.8236652 C6.28317073,60.3852036 8.66941463,52.4697285 14.7121463,50.5457014 L14.7121463,50.5457014 Z" id="Shape" fill="#FFFFFF"></path>
            <path d="M27.6232683,57.1449774 C28.4670732,54.709095 31.1300488,52.7804977 33.720439,53.7219457 C37.6944878,55.2346606 38.6244878,60.8285068 36.456,64.1875566 C35.3037073,66.2852489 32.5545366,67.2586878 30.3769756,66.2532579 C29.5966829,65.750543 28.8662927,65.1838462 28.1041463,64.6628507 C27.3465366,62.2543891 26.4709756,59.59 27.6232683,57.1449774 L27.6232683,57.1449774 Z" id="Shape" fill="#AFDFEC"></path>
            <path d="M16.4950244,54.608552 C18.9447805,53.3700452 21.9207805,54.8507692 22.9732683,57.2592308 C24.2661951,59.6494118 23.6446829,62.418914 22.986878,64.8959276 C22.3835122,65.348371 21.8119024,65.8373756 21.2448293,66.32181 C19.6479512,67.7248416 17.0847805,67.5968778 15.5287317,66.2029864 C12.0763902,63.2780995 12.4756098,56.8342081 16.4950244,54.608552 L16.4950244,54.608552 Z" id="Shape" fill="#AFDFEC"></path>
            <path d="M17.4885366,56.9621719 C20.0199512,55.9978733 22.0115122,58.9456109 21.7665366,61.239819 C21.8209756,63.3557919 20.0517073,65.9150679 17.7153659,65.2386878 C14.4081951,63.9864706 14.3265366,58.4474661 17.4885366,56.9621719 L17.4885366,56.9621719 Z" id="Shape" fill="#000000"></path>
            <path d="M31.4793659,56.9164706 C33.8066341,56.1258371 35.657561,58.7079638 35.6258049,60.8239367 C35.8118049,62.9627602 34.2421463,65.7642534 31.8014634,65.2935294 C28.2266341,64.2880995 28.0950732,58.278371 31.4793659,56.9164706 L31.4793659,56.9164706 Z" id="Shape" fill="#000000"></path>
            <path d="M18.2642927,57.739095 C19.6207317,56.5097285 21.4172195,58.9044796 19.8657073,59.8550679 C18.5500976,60.8147964 17.034878,58.7399548 18.2642927,57.739095 L18.2642927,57.739095 Z" id="Shape" fill="#FFFFFF"></path>
            <path d="M30.9485854,57.6476923 C31.697122,57.1175566 32.8947805,57.6065611 32.9719024,58.5434389 C33.2214146,59.6265611 31.8422927,60.5131674 30.9621951,59.8550679 C30.1501463,59.4254751 30.1592195,58.0864253 30.9485854,57.6476923 L30.9485854,57.6476923 Z" id="Shape" fill="#FFFFFF"></path>
            <path d="M45.756,62.8028054 C50.1519512,67.0941629 51.9302927,73.899095 50.088439,79.7991403 C48.3327805,85.648914 43.5466829,90.1550679 38.0937073,92.5680995 C39.8992683,89.990543 41.9316585,87.5363801 43.1656098,84.6069231 C46.3321463,77.8339819 46.8130244,70.128733 45.756,62.8028054 L45.756,62.8028054 Z" id="Shape" fill="#7A441E"></path>
            <path d="M22.986878,64.8959276 C24.3841463,63.7671041 26.6206829,63.6482805 28.1041463,64.6628507 C28.8662927,65.1838462 29.5966829,65.750543 30.3769756,66.2532579 C30.3497561,66.8428054 30.3225366,67.4369231 30.2998537,68.0264706 C29.0613659,69.2284163 27.9181463,70.530905 26.6161463,71.6642986 C26.1125854,72.180724 25.1689756,72.080181 24.7062439,71.5500452 C23.5993171,70.5171946 22.5286829,69.4477828 21.498878,68.34181 C20.9045854,67.839095 21.0905854,66.9799095 21.2448293,66.32181 C21.8119024,65.8373756 22.3835122,65.348371 22.986878,64.8959276 L22.986878,64.8959276 Z" id="Shape" fill="#FF7F14"></path>
            <path d="M2.21385366,77.7060181 C1.41541463,73.158733 2.65843902,68.3646606 5.41214634,64.6902715 C5.11726829,70.3435294 5.12634146,76.1613122 7.07253659,81.5495023 C8.14770732,85.0822172 10.23,88.1442081 12.1852683,91.2244796 C7.16780488,88.4321267 3.17560976,83.4780995 2.21385366,77.7060181 L2.21385366,77.7060181 Z" id="Shape" fill="#7A441E"></path>
            <path d="M17.2889268,95.1685068 C19.5662927,94.60181 22.3472195,95.3010407 23.5267317,97.4901357 C24.2162927,98.7149321 22.9460488,99.99 21.8799512,100.433303 C21.2493659,100.063122 20.4962927,99.3821719 19.8158049,100.076833 C19.1942927,100.66181 18.6,100.058552 18.0556098,99.6838009 C17.1573659,99.958009 16.0277561,100.780633 15.2565366,99.8026244 C14.2857073,99.2222172 14.5669756,98.0294118 14.5442927,97.0788235 C15.5060488,96.5166968 16.3498537,95.7717647 17.2889268,95.1685068 L17.2889268,95.1685068 Z" id="Shape" fill="#FF7F14"></path>
            <path d="M27.7276098,97.0879638 C28.698439,96.5304072 29.5921463,95.849457 30.4041951,95.0679638 C33.0354146,94.6338009 36.138439,95.4929864 37.1092683,98.2624887 C36.6782927,98.8977376 36.2881463,99.5649774 35.8027317,100.159095 C34.9770732,100.524706 34.1559512,99.6061086 33.3076098,99.8940271 C32.5182439,100.241357 31.7334146,99.9854299 30.9485854,99.8163348 C30.1093171,100.008281 29.0885854,100.725792 28.4262439,99.788914 C27.5007805,99.1902262 27.7865854,98.0202715 27.7276098,97.0879638 L27.7276098,97.0879638 Z" id="Shape" fill="#FF7F14"></path>
        </g>
    </g>
</svg>